<svg width="32" height="86" viewBox="0 0 32 86" fill="none" xmlns="http://www.w3.org/2000/svg">
<path d="M4.11475 9.85246C4.62507 7.34789 5.26265 6.25262 6.65573 4.52459C7.74218 3.09596 10.0789 1.80848 10.1803 1.90164C10.1495 1.81139 11.8835 1.11486 13.2131 1H18.7869C21.3027 1.10429 24.0328 3.29508 24.5246 3.78689C25.0164 4.27869 26.056 5.29313 26.7377 6.40984C27.3292 7.65553 27.5663 8.419 27.8852 9.85246H10.7541C11.4649 8.93208 11.8244 8.55076 12.3934 8.13115C12.6557 7.93443 13.1038 7.66667 13.2951 7.55738C13.8996 7.19932 14.2643 7.09593 14.9344 6.98361H16V3.95082C15.0957 3.93632 14.5924 3.98531 13.7049 4.19672C12.8417 4.52571 12.3847 4.70864 11.9016 5.01639C10.4669 5.70075 8.95081 7.55738 8.95081 7.55738C8.95081 7.55738 8.50171 8.14069 8.10784 8.83736C7.95454 9.12841 7.80834 9.44995 7.63934 9.85246H4.11475Z" fill="#FFD700"/>
<path d="M8.95081 7.55738C8.95081 7.55738 10.4669 5.70075 11.9016 5.01639C12.3847 4.70864 12.8417 4.52571 13.7049 4.19672C14.5924 3.98531 15.0957 3.93632 16 3.95082C16 5.26229 16 6.98361 16 6.98361H14.9344C14.2643 7.09593 13.8996 7.19932 13.2951 7.55738C13.1038 7.66667 12.6557 7.93443 12.3934 8.13115C11.8244 8.55076 11.4649 8.93208 10.7541 9.85246H27.8852C27.5663 8.419 27.3292 7.65553 26.7377 6.40984C26.056 5.29313 25.0164 4.27869 24.5246 3.78688C24.0328 3.29508 21.3027 1.10429 18.7869 1H13.2131C11.8835 1.11486 10.1495 1.81139 10.1803 1.90164C10.0789 1.80848 7.74218 3.09596 6.65573 4.52459C5.26265 6.25262 4.62507 7.34788 4.11475 9.85246H7.63934M8.95081 7.55738C8.95081 7.55738 7.97627 8.82314 7.63934 9.85246M8.95081 7.55738C8.34321 8.34359 8.06285 8.84378 7.63934 9.85246" stroke="#FFBA01"/>
<path d="M31 12.9672H1V15.918H31V12.9672Z" fill="#FFD700"/>
<path d="M3.95082 18.7869V25.6721H4.11475L10.8361 19.0328V18.7869H3.95082Z" fill="#FFD700"/>
<path d="M24.2787 18.8689H15.0984L7.39344 26.5738L3.95082 30.0164V39.1967H4.11475L15.2623 28.0492L19.3607 23.9508L24.3607 18.8689H24.2787Z" fill="#FFD700"/>
<path d="M28.0492 30.1803V19.5246H27.8852L3.95082 43.459V54.1148L4.03279 54.1967L27.8852 30.3443L28.0492 30.1803Z" fill="#FFD700"/>
<path d="M28.0492 34.6066H27.8852L3.95082 58.459V66.9016H6.40984L28.0492 45.3443V45.2623V34.6066Z" fill="#FFD700"/>
<path d="M28.0492 58.7049V49.5246L17.9672 59.4426L10.6721 66.7377V66.9016H19.8525L28.0492 58.7049Z" fill="#FFD700"/>
<path d="M28.0492 66.9016V63.1312V62.9672H27.9672L24.1148 66.9016H28.0492Z" fill="#FFD700"/>
<path d="M31 72.8033V69.8525H1V72.8033H31Z" fill="#FFD700"/>
<path d="M19.6885 77.7213C19.6885 77.7213 20.7541 76.8197 21.1639 75.918L4.03279 75.8361C4.06011 76.082 4.13115 76.6721 4.19672 77.0656C4.93443 79.1967 6.08197 81.1639 7.39344 82.3115C8.70492 83.459 10.5584 84.4059 12.8033 84.9344H18.7869C19.4841 84.8699 19.8548 84.7567 20.5082 84.5246C22.7559 83.7568 23.9683 83.0022 26 80.7541C27.1918 79.0438 27.6461 77.9628 27.9672 75.7541H27.8852H24.4426V75.918C23.5207 77.9037 22.7715 78.8086 21.1639 80.1803C19.4078 81.2973 18.3149 81.6962 16.082 81.8197V79.0328C17.6785 78.9064 18.4807 78.6425 19.6885 77.7213Z" fill="#FFD700"/>
<path d="M31 12.9672H1V15.918H31V12.9672Z" stroke="#FFBA01"/>
<path d="M3.95082 18.7869V25.6721H4.11475L10.8361 19.0328V18.7869H3.95082Z" stroke="#FFBA01"/>
<path d="M24.2787 18.8689H15.0984L7.39344 26.5738L3.95082 30.0164V39.1967H4.11475L15.2623 28.0492L19.3607 23.9508L24.3607 18.8689H24.2787Z" stroke="#FFBA01"/>
<path d="M28.0492 30.1803V19.5246H27.8852L3.95082 43.459V54.1148L4.03279 54.1967L27.8852 30.3443L28.0492 30.1803Z" stroke="#FFBA01"/>
<path d="M28.0492 34.6066H27.8852L3.95082 58.459V66.9016H6.40984L28.0492 45.3443V45.2623V34.6066Z" stroke="#FFBA01"/>
<path d="M28.0492 58.7049V49.5246L17.9672 59.4426L10.6721 66.7377V66.9016H19.8525L28.0492 58.7049Z" stroke="#FFBA01"/>
<path d="M28.0492 66.9016V63.1312V62.9672H27.9672L24.1148 66.9016H28.0492Z" stroke="#FFBA01"/>
<path d="M31 72.8033V69.8525H1V72.8033H31Z" stroke="#FFBA01"/>
<path d="M19.6885 77.7213C19.6885 77.7213 20.7541 76.8197 21.1639 75.918L4.03279 75.8361C4.06011 76.082 4.13115 76.6721 4.19672 77.0656C4.93443 79.1967 6.08197 81.1639 7.39344 82.3115C8.70492 83.459 10.5584 84.4059 12.8033 84.9344H18.7869C19.4841 84.8699 19.8548 84.7567 20.5082 84.5246C22.7559 83.7568 23.9683 83.0022 26 80.7541C27.1918 79.0438 27.6461 77.9628 27.9672 75.7541H27.8852H24.4426V75.918C23.5207 77.9037 22.7715 78.8086 21.1639 80.1803C19.4078 81.2973 18.3149 81.6962 16.082 81.8197V79.0328C17.6785 78.9064 18.4807 78.6425 19.6885 77.7213Z" stroke="#FFBA01"/>
</svg>
