<svg width="100" height="100" viewBox="0 0 100 100" fill="none" xmlns="http://www.w3.org/2000/svg">
<rect width="100" height="100" fill="white"/>
<path d="M38.1147 16.8525C38.6251 14.3479 39.2627 13.2526 40.6557 11.5246C41.7422 10.096 44.0789 8.80848 44.1803 8.90164C44.1495 8.81139 45.8835 8.11486 47.2131 8H52.7869C55.3027 8.10429 58.0328 10.2951 58.5246 10.7869C59.0164 11.2787 60.056 12.2931 60.7377 13.4098C61.3292 14.6555 61.5663 15.419 61.8852 16.8525H44.7541C45.4649 15.9321 45.8244 15.5508 46.3934 15.1311C46.6557 14.9344 47.1038 14.6667 47.2951 14.5574C47.8996 14.1993 48.2643 14.0959 48.9344 13.9836H50V10.9508C49.0957 10.9363 48.5924 10.9853 47.7049 11.1967C46.8417 11.5257 46.3847 11.7086 45.9016 12.0164C44.4669 12.7007 42.9508 14.5574 42.9508 14.5574C42.9508 14.5574 42.5017 15.1407 42.1078 15.8374C41.9545 16.1284 41.8083 16.4499 41.6393 16.8525H38.1147Z" fill="#C0C0C0"/>
<path d="M42.9508 14.5574C42.9508 14.5574 44.4669 12.7007 45.9016 12.0164C46.3847 11.7086 46.8417 11.5257 47.7049 11.1967C48.5924 10.9853 49.0957 10.9363 50 10.9508C50 12.2623 50 13.9836 50 13.9836H48.9344C48.2643 14.0959 47.8996 14.1993 47.2951 14.5574C47.1038 14.6667 46.6557 14.9344 46.3934 15.1311C45.8244 15.5508 45.4649 15.9321 44.7541 16.8525H61.8852C61.5663 15.419 61.3292 14.6555 60.7377 13.4098C60.056 12.2931 59.0164 11.2787 58.5246 10.7869C58.0328 10.2951 55.3027 8.10429 52.7869 8H47.2131C45.8835 8.11486 44.1495 8.81139 44.1803 8.90164C44.0789 8.80848 41.7422 10.096 40.6557 11.5246C39.2627 13.2526 38.6251 14.3479 38.1147 16.8525H41.6393M42.9508 14.5574C42.9508 14.5574 41.9763 15.8231 41.6393 16.8525M42.9508 14.5574C42.3432 15.3436 42.0628 15.8438 41.6393 16.8525" stroke="#C0C0C0"/>
<path d="M65 19.9672H35V22.918H65V19.9672Z" fill="#C0C0C0"/>
<path d="M37.9508 25.7869V32.6721H38.1148L44.8361 26.0328V25.7869H37.9508Z" fill="#C0C0C0"/>
<path d="M58.2787 25.8689H49.0984L41.3934 33.5738L37.9508 37.0164V46.1967H38.1148L49.2623 35.0492L53.3607 30.9508L58.3607 25.8689H58.2787Z" fill="#C0C0C0"/>
<path d="M62.0492 37.1803V26.5246H61.8852L37.9508 50.459V61.1148L38.0328 61.1967L61.8852 37.3443L62.0492 37.1803Z" fill="#C0C0C0"/>
<path d="M62.0492 41.6066H61.8852L37.9508 65.459V73.9016H40.4098L62.0492 52.3443V52.2623V41.6066Z" fill="#C0C0C0"/>
<path d="M62.0492 65.7049V56.5246L51.9672 66.4426L44.6721 73.7377V73.9016H53.8525L62.0492 65.7049Z" fill="#C0C0C0"/>
<path d="M62.0492 73.9016V70.1312V69.9672H61.9672L58.1148 73.9016H62.0492Z" fill="#C0C0C0"/>
<path d="M65 79.8033V76.8525H35V79.8033H65Z" fill="#C0C0C0"/>
<path d="M53.6885 84.7213C53.6885 84.7213 54.7541 83.8197 55.1639 82.918L38.0328 82.8361C38.0601 83.082 38.1311 83.6721 38.1967 84.0656C38.9344 86.1967 40.082 88.1639 41.3934 89.3115C42.7049 90.459 44.5584 91.4059 46.8033 91.9344H52.7869C53.4841 91.8699 53.8548 91.7567 54.5082 91.5246C56.7559 90.7568 57.9683 90.0022 60 87.7541C61.1918 86.0438 61.6461 84.9628 61.9672 82.7541H61.8852H58.4426V82.918C57.5207 84.9037 56.7715 85.8086 55.1639 87.1803C53.4078 88.2973 52.3149 88.6962 50.082 88.8197V86.0328C51.6785 85.9064 52.4807 85.6425 53.6885 84.7213Z" fill="#C0C0C0"/>
<path d="M65 19.9672H35V22.918H65V19.9672Z" stroke="#C0C0C0"/>
<path d="M37.9508 25.7869V32.6721H38.1148L44.8361 26.0328V25.7869H37.9508Z" stroke="#C0C0C0"/>
<path d="M58.2787 25.8689H49.0984L41.3934 33.5738L37.9508 37.0164V46.1967H38.1148L49.2623 35.0492L53.3607 30.9508L58.3607 25.8689H58.2787Z" stroke="#C0C0C0"/>
<path d="M62.0492 37.1803V26.5246H61.8852L37.9508 50.459V61.1148L38.0328 61.1967L61.8852 37.3443L62.0492 37.1803Z" stroke="#C0C0C0"/>
<path d="M62.0492 41.6066H61.8852L37.9508 65.459V73.9016H40.4098L62.0492 52.3443V52.2623V41.6066Z" stroke="#C0C0C0"/>
<path d="M62.0492 65.7049V56.5246L51.9672 66.4426L44.6721 73.7377V73.9016H53.8525L62.0492 65.7049Z" stroke="#C0C0C0"/>
<path d="M62.0492 73.9016V70.1312V69.9672H61.9672L58.1148 73.9016H62.0492Z" stroke="#C0C0C0"/>
<path d="M65 79.8033V76.8525H35V79.8033H65Z" stroke="#C0C0C0"/>
<path d="M53.6885 84.7213C53.6885 84.7213 54.7541 83.8197 55.1639 82.918L38.0328 82.8361C38.0601 83.082 38.1311 83.6721 38.1967 84.0656C38.9344 86.1967 40.082 88.1639 41.3934 89.3115C42.7049 90.459 44.5584 91.4059 46.8033 91.9344H52.7869C53.4841 91.8699 53.8548 91.7567 54.5082 91.5246C56.7559 90.7568 57.9683 90.0022 60 87.7541C61.1918 86.0438 61.6461 84.9628 61.9672 82.7541H61.8852H58.4426V82.918C57.5207 84.9037 56.7715 85.8086 55.1639 87.1803C53.4078 88.2973 52.3149 88.6962 50.082 88.8197V86.0328C51.6785 85.9064 52.4807 85.6425 53.6885 84.7213Z" stroke="#C0C0C0"/>
</svg>
